<svg width="25" height="24" viewBox="0 0 25 24" fill="none" xmlns="http://www.w3.org/2000/svg">
<path d="M14.75 22H10.75V21H14.75V22ZM13.75 10V7H11.75V10L10.75 11.5V20H14.75V11.5L13.75 10ZM12.75 2C12.75 2 11.75 3 11.75 5V6H13.75V5C13.75 5 13.75 3 12.75 2ZM8.75 22H4.75V21H8.75V22ZM7.75 10V7H5.75V10L4.75 11.5V20H8.75V11.5L7.75 10ZM6.75 2C6.75 2 5.75 3 5.75 5V6H7.75V5C7.75 5 7.75 3 6.75 2ZM20.75 22H16.75V21H20.75V22ZM19.75 10V7H17.75V10L16.75 11.5V20H20.75V11.5L19.75 10ZM18.75 2C18.75 2 17.75 3 17.75 5V6H19.75V5C19.75 5 19.75 3 18.75 2Z" fill="white"/>
</svg>
