<svg width="33" height="32" viewBox="0 0 33 32" fill="none" xmlns="http://www.w3.org/2000/svg">
<path d="M19.4167 29.3333H14.0833V28H19.4167V29.3333ZM18.0833 13.3333V9.33332H15.4167V13.3333L14.0833 15.3333V26.6667H19.4167V15.3333L18.0833 13.3333ZM16.75 2.66666C16.75 2.66666 15.4167 3.99999 15.4167 6.66666V7.99999H18.0833V6.66666C18.0833 6.66666 18.0833 3.99999 16.75 2.66666ZM11.4167 29.3333H6.08333V28H11.4167V29.3333ZM10.0833 13.3333V9.33332H7.41667V13.3333L6.08333 15.3333V26.6667H11.4167V15.3333L10.0833 13.3333ZM8.75 2.66666C8.75 2.66666 7.41667 3.99999 7.41667 6.66666V7.99999H10.0833V6.66666C10.0833 6.66666 10.0833 3.99999 8.75 2.66666ZM27.4167 29.3333H22.0833V28H27.4167V29.3333ZM26.0833 13.3333V9.33332H23.4167V13.3333L22.0833 15.3333V26.6667H27.4167V15.3333L26.0833 13.3333ZM24.75 2.66666C24.75 2.66666 23.4167 3.99999 23.4167 6.66666V7.99999H26.0833V6.66666C26.0833 6.66666 26.0833 3.99999 24.75 2.66666Z" fill="#C77A1D"/>
</svg>
