<svg width="25" height="24" viewBox="0 0 25 24" fill="none" xmlns="http://www.w3.org/2000/svg">
<g clip-path="url(#clip0_1_346)">
<path fill-rule="evenodd" clip-rule="evenodd" d="M10.75 2C9.39459 2.00012 8.05887 2.32436 6.85426 2.94569C5.64965 3.56702 4.61109 4.46742 3.82524 5.57175C3.03938 6.67609 2.52901 7.95235 2.33671 9.29404C2.14441 10.6357 2.27575 12.004 2.71978 13.2846C3.16381 14.5652 3.90765 15.7211 4.88924 16.6557C5.87083 17.5904 7.06171 18.2768 8.36252 18.6576C9.66332 19.0384 11.0363 19.1026 12.367 18.8449C13.6977 18.5872 14.9474 18.015 16.012 17.176L19.664 20.828C19.8526 21.0102 20.1052 21.111 20.3674 21.1087C20.6296 21.1064 20.8804 21.0012 21.0658 20.8158C21.2512 20.6304 21.3564 20.3796 21.3587 20.1174C21.361 19.8552 21.2602 19.6026 21.078 19.414L17.426 15.762C18.414 14.5086 19.0292 13.0024 19.2011 11.4157C19.373 9.82905 19.0948 8.22602 18.3982 6.79009C17.7017 5.35417 16.6149 4.14336 15.2623 3.29623C13.9097 2.44911 12.346 1.99989 10.75 2ZM4.25 10.5C4.25 8.77609 4.93482 7.12279 6.15381 5.90381C7.37279 4.68482 9.02609 4 10.75 4C12.4739 4 14.1272 4.68482 15.3462 5.90381C16.5652 7.12279 17.25 8.77609 17.25 10.5C17.25 12.2239 16.5652 13.8772 15.3462 15.0962C14.1272 16.3152 12.4739 17 10.75 17C9.02609 17 7.37279 16.3152 6.15381 15.0962C4.93482 13.8772 4.25 12.2239 4.25 10.5Z" fill="white"/>
</g>
<defs>
<clipPath id="clip0_1_346">
<rect width="24" height="24" fill="white" transform="translate(0.25)"/>
</clipPath>
</defs>
</svg>
