<svg width="33" height="32" viewBox="0 0 33 32" fill="none" xmlns="http://www.w3.org/2000/svg">
<g clip-path="url(#clip0_1_346)">
<path fill-rule="evenodd" clip-rule="evenodd" d="M14.25 2.66666C12.4428 2.66681 10.6618 3.09914 9.05568 3.92758C7.44953 4.75602 6.06479 5.95655 5.01698 7.42899C3.96917 8.90144 3.28868 10.6031 3.03228 12.392C2.77588 14.181 2.951 16.0053 3.54304 17.7128C4.13508 19.4202 5.12686 20.9614 6.43565 22.2076C7.74444 23.4539 9.33228 24.369 11.0667 24.8768C12.8011 25.3846 14.6318 25.4702 16.406 25.1265C18.1803 24.7829 19.8466 24.0199 21.266 22.9013L26.1353 27.7707C26.3868 28.0135 26.7236 28.1479 27.0732 28.1449C27.4228 28.1418 27.7572 28.0016 28.0044 27.7544C28.2516 27.5072 28.3919 27.1728 28.3949 26.8232C28.3979 26.4736 28.2635 26.1368 28.0207 25.8853L23.1513 21.016C24.4687 19.3448 25.2889 17.3365 25.5181 15.221C25.7474 13.1054 25.3764 10.968 24.4476 9.05345C23.5189 7.13888 22.0698 5.52446 20.2664 4.39496C18.463 3.26547 16.378 2.66651 14.25 2.66666ZM5.58334 14C5.58334 11.7014 6.49643 9.49705 8.12174 7.87173C9.74706 6.24642 11.9515 5.33332 14.25 5.33332C16.5485 5.33332 18.7529 6.24642 20.3783 7.87173C22.0036 9.49705 22.9167 11.7014 22.9167 14C22.9167 16.2985 22.0036 18.5029 20.3783 20.1282C18.7529 21.7536 16.5485 22.6667 14.25 22.6667C11.9515 22.6667 9.74706 21.7536 8.12174 20.1282C6.49643 18.5029 5.58334 16.2985 5.58334 14Z" fill="#C77A1D"/>
</g>
<defs>
<clipPath id="clip0_1_346">
<rect width="32" height="32" fill="white" transform="translate(0.25)"/>
</clipPath>
</defs>
</svg>
